<!-- DailyForever Logo Icon - Minimalist Shield with Lock -->
<svg xmlns="http://www.w3.org/2000/svg" viewBox="0 0 64 64" width="64" height="64">
  <defs>
    <!-- Gradient for depth -->
    <linearGradient id="shieldGradient" x1="0%" y1="0%" x2="0%" y2="100%">
      <stop offset="0%" style="stop-color:#60a5fa;stop-opacity:1" />
      <stop offset="100%" style="stop-color:#2563eb;stop-opacity:1" />
    </linearGradient>
    
    <!-- Inner shadow effect -->
    <filter id="innerShadow" x="-50%" y="-50%" width="200%" height="200%">
      <feGaussianBlur in="SourceAlpha" stdDeviation="2"/>
      <feOffset dx="0" dy="1" result="offsetblur"/>
      <feFlood flood-color="#000000" flood-opacity="0.15"/>
      <feComposite in2="offsetblur" operator="in"/>
      <feMerge>
        <feMergeNode/>
        <feMergeNode in="SourceGraphic"/>
      </feMerge>
    </filter>
  </defs>
  
  <!-- Shield shape with modern rounded corners -->
  <path d="M32 4 C32 4, 52 10, 52 10 C52 10, 52 28, 52 36 C52 52, 32 60, 32 60 C32 60, 12 52, 12 36 C12 28, 12 10, 12 10 L32 4 Z" 
        fill="url(#shieldGradient)" 
        stroke="none"
        opacity="1"/>
  
  <!-- Inner shield highlight -->
  <path d="M32 8 C32 8, 48 13, 48 13 C48 13, 48 29, 48 35 C48 48, 32 55, 32 55 C32 55, 16 48, 16 35 C16 29, 16 13, 16 13 L32 8 Z" 
        fill="white" 
        opacity="0.15"/>
  
  <!-- Lock icon in center -->
  <g transform="translate(32, 30)">
    <!-- Lock body -->
    <rect x="-10" y="-4" width="20" height="14" rx="2" ry="2" 
          fill="white" 
          opacity="0.95"/>
    
    <!-- Lock shackle -->
    <path d="M -7,-4 L -7,-10 Q -7,-14 0,-14 Q 7,-14 7,-10 L 7,-4" 
          stroke="white" 
          stroke-width="3" 
          fill="none" 
          stroke-linecap="round"
          opacity="0.95"/>
    
    <!-- Keyhole -->
    <circle cx="0" cy="3" r="2" fill="#2563eb"/>
  </g>
</svg>
