<!-- DailyForever Favicon SVG -->
<svg xmlns="http://www.w3.org/2000/svg" viewBox="0 0 32 32" width="32" height="32">
  <defs>
    <linearGradient id="faviconGradient" x1="0%" y1="0%" x2="0%" y2="100%">
      <stop offset="0%" style="stop-color:#60a5fa;stop-opacity:1" />
      <stop offset="100%" style="stop-color:#2563eb;stop-opacity:1" />
    </linearGradient>
  </defs>
  
  <!-- Simplified shield for small size -->
  <path d="M16 2 C16 2, 26 5, 26 5 C26 5, 26 14, 26 18 C26 26, 16 30, 16 30 C16 30, 6 26, 6 18 C6 14, 6 5, 6 5 L16 2 Z" 
        fill="url(#faviconGradient)" 
        stroke="none"/>
  
  <!-- Inner highlight -->
  <path d="M16 4 C16 4, 24 6.5, 24 6.5 C24 6.5, 24 14.5, 24 17.5 C24 24, 16 27, 16 27 C16 27, 8 24, 8 17.5 C8 14.5, 8 6.5, 8 6.5 L16 4 Z" 
        fill="white" 
        opacity="0.2"/>
  
  <!-- Lock icon (simplified) -->
  <g transform="translate(16, 15)">
    <!-- Lock body -->
    <rect x="-5" y="-2" width="10" height="7" rx="1" 
          fill="white" 
          opacity="0.95"/>
    
    <!-- Lock shackle -->
    <path d="M -3.5,-2 L -3.5,-5 Q -3.5,-7 0,-7 Q 3.5,-7 3.5,-5 L 3.5,-2" 
          stroke="white" 
          stroke-width="1.5" 
          fill="none" 
          stroke-linecap="round"
          opacity="0.95"/>
    
    <!-- Keyhole -->
    <circle cx="0" cy="1.5" r="1" fill="#2563eb"/>
  </g>
</svg>
